<?xml version="1.0" standalone="no"?>
<!DOCTYPE svg PUBLIC "-//W3C//DTD SVG 20010904//EN"
 "http://www.w3.org/TR/2001/REC-SVG-20010904/DTD/svg10.dtd">
<svg version="1.0" xmlns="http://www.w3.org/2000/svg"
 width="600.000000pt" height="480.000000pt" viewBox="0 0 600.000000 480.000000"
 preserveAspectRatio="xMidYMid meet">

<g transform="translate(0.000000,480.000000) scale(0.100000,-0.100000)"
fill="#000000" stroke="none">
<path d="M3340 4690 c-58 -20 -152 -58 -210 -83 -58 -25 -106 -41 -108 -36 -5
12 -28 11 -74 -1 -27 -8 -35 -15 -32 -28 6 -24 -43 -59 -65 -45 -12 8 -21 2
-43 -28 -16 -23 -25 -45 -21 -54 4 -12 -19 -39 -75 -93 -105 -99 -233 -243
-226 -253 2 -5 35 24 73 64 190 200 201 212 186 182 -8 -17 -15 -57 -15 -91 0
-56 -2 -63 -27 -79 -16 -10 -83 -56 -150 -102 l-123 -84 60 -89 c33 -49 60
-92 60 -95 0 -3 -47 -5 -105 -5 -105 0 -105 0 -140 -32 -26 -24 -37 -45 -43
-78 -6 -39 -11 -45 -33 -48 -21 -2 -31 4 -47 30 -12 18 -27 40 -33 48 -9 13
-5 27 21 68 40 66 100 232 100 278 0 49 -37 84 -87 84 -51 0 -76 -19 -113 -88
-17 -31 -46 -75 -65 -97 -31 -36 -34 -38 -35 -17 0 36 -35 96 -77 132 -52 45
-56 55 -37 85 19 28 21 83 5 114 -17 32 -68 54 -107 47 -34 -7 -84 -55 -84
-82 0 -9 -11 -14 -32 -14 -40 0 -123 -38 -160 -72 -17 -17 -31 -22 -40 -17
-29 19 -87 10 -119 -19 -25 -23 -32 -36 -33 -71 -1 -36 4 -47 32 -72 20 -18
43 -29 62 -29 32 0 31 1 35 -80 3 -77 6 -90 39 -138 l34 -51 -27 -24 c-37 -35
-128 -100 -182 -131 -74 -42 -90 -106 -40 -157 38 -38 66 -37 171 6 47 19 90
35 95 35 6 0 15 -16 21 -36 11 -33 10 -36 -21 -60 -21 -16 -45 -24 -72 -24
-48 0 -78 -27 -70 -62 17 -67 137 -198 181 -198 13 0 44 16 68 35 131 104 205
149 350 211 137 59 274 103 321 104 16 0 16 -3 -3 -37 -15 -29 -20 -57 -20
-119 l0 -81 -38 -11 c-21 -6 -50 -24 -64 -39 -29 -30 -72 -112 -83 -155 -9
-34 -18 -35 -39 -3 -23 35 -83 94 -120 116 -37 23 -103 25 -133 4 -12 -9 -27
-32 -32 -53 -14 -47 14 -109 61 -137 l33 -19 -97 -16 c-54 -9 -101 -19 -104
-23 -4 -3 4 -50 17 -104 22 -91 26 -98 49 -98 27 0 26 1 125 -447 15 -68 20
-78 39 -78 11 0 110 14 220 31 164 27 204 30 230 21 23 -9 223 -12 713 -12
654 0 683 1 746 20 78 24 174 86 221 142 l34 42 58 -26 c76 -33 242 -86 417
-132 104 -28 142 -34 156 -26 21 11 73 92 117 183 22 45 33 57 49 55 15 -2 25
8 42 43 12 25 25 59 28 75 3 16 -5 2 -19 -30 -14 -32 -30 -64 -36 -70 -11 -11
-210 48 -210 63 0 5 10 32 22 61 20 49 23 52 52 47 17 -3 63 -16 101 -30 58
-22 71 -24 73 -12 2 9 8 12 14 8 7 -4 9 0 5 10 -3 9 11 60 33 116 22 54 40
103 40 109 0 6 -9 16 -20 22 -12 6 -17 17 -14 28 5 15 4 15 -5 1 -10 -16 -61
-16 -61 0 0 3 11 49 25 101 13 52 23 95 22 97 -2 1 -30 -4 -62 -12 -86 -21
-85 -21 -85 30 0 36 -3 45 -17 45 -10 0 -77 -19 -150 -41 l-132 -42 -56 17
-55 18 53 57 c101 109 166 294 152 431 -10 92 -39 177 -83 246 -37 56 -126
149 -164 170 -21 12 -25 57 -9 106 l12 36 66 -1 67 -2 48 130 c38 104 46 135
38 153 -14 32 -93 79 -183 107 -86 27 -145 32 -169 13 -17 -14 -98 -233 -98
-265 0 -19 37 -53 73 -66 29 -11 15 -73 -26 -111 -20 -18 -36 -21 -117 -22
-153 0 -282 -56 -390 -168 l-44 -46 -261 0 c-288 1 -287 1 -137 56 60 22 75
25 82 14 13 -21 93 35 85 59 -4 14 33 58 153 182 204 210 218 227 203 242 -8
7 -11 8 -9 1 2 -6 -55 -71 -126 -145 -71 -74 -126 -125 -122 -114 5 11 13 52
20 92 l11 72 135 92 c74 50 139 95 144 99 7 7 -188 310 -200 310 -2 0 -48 -28
-101 -63 -54 -35 -123 -78 -154 -95 -54 -31 -56 -31 -104 -17 -26 8 -64 15
-84 15 -30 1 -33 2 -18 11 10 6 23 9 30 6 6 -2 16 0 22 5 5 5 71 35 145 67 91
39 137 54 142 47 6 -8 8 -7 8 1 0 23 -16 21 -120 -17z m329 -118 c50 -76 91
-140 91 -144 0 -13 -131 -91 -139 -82 -19 21 -181 267 -181 275 0 10 111 88
126 88 6 1 52 -61 103 -137z m-151 -97 c51 -74 92 -138 92 -143 0 -5 -28 -28
-62 -51 l-63 -41 -8 37 c-17 82 -102 201 -172 241 -11 6 -18 13 -15 15 16 15
117 76 125 76 6 1 52 -60 103 -134z m-533 80 c-35 -16 -64 -20 -49 -6 10 10
39 18 64 19 8 0 2 -6 -15 -13z m279 -44 c80 -39 147 -111 176 -189 28 -74 25
-213 -7 -282 -54 -120 -171 -197 -315 -210 -65 -6 -72 -8 -33 -9 37 -1 46 -4
34 -11 -9 -5 -25 -11 -35 -13 -11 -1 -26 -7 -34 -12 -14 -9 -220 -19 -220 -11
0 2 23 21 51 41 42 30 58 36 83 31 26 -5 24 -2 -17 20 -241 126 -264 467 -43
619 74 51 126 65 218 62 62 -3 89 -10 142 -36z m-438 -61 c-14 -17 -26 -27
-26 -22 0 13 41 64 47 58 3 -3 -6 -19 -21 -36z m1535 -30 c35 -10 89 -34 119
-52 48 -29 55 -37 54 -63 -1 -23 -57 -194 -70 -213 -1 -1 -23 11 -50 27 -60
37 -172 77 -243 87 -42 5 -51 10 -46 23 4 9 23 60 42 114 l35 97 48 0 c26 0
76 -9 111 -20z m-2529 -180 c25 -26 29 -36 24 -62 -11 -53 -24 -61 -57 -34
-16 14 -38 27 -49 31 -11 3 -20 12 -20 19 0 20 25 37 44 30 14 -5 14 -9 4 -23
-12 -14 -11 -14 4 -3 9 8 22 11 28 7 14 -9 13 8 -2 23 -25 25 -77 8 -91 -30
-3 -10 -8 -10 -17 -2 -16 16 3 52 33 64 40 16 68 10 99 -20z m-104 -75 c24
-10 72 -51 125 -105 87 -91 95 -105 109 -215 3 -15 10 -11 37 25 l35 45 -33
-30 c-27 -25 -21 -12 34 75 79 123 96 140 139 140 54 -1 92 -47 80 -97 -7 -26
-120 -272 -130 -282 -2 -2 -6 -2 -9 1 -3 3 22 57 55 120 78 149 78 164 -1 23
-33 -61 -65 -114 -70 -120 -18 -18 -9 15 17 68 32 63 20 55 -16 -11 -18 -32
-32 -46 -44 -45 -15 1 -13 -4 10 -24 16 -13 22 -22 12 -19 -9 2 3 -15 27 -38
25 -25 51 -65 63 -97 12 -30 21 -47 21 -39 1 26 -35 95 -69 133 -18 20 -28 37
-22 37 27 0 87 -95 108 -170 7 -25 13 -37 13 -27 1 10 11 22 24 27 l22 9 -22
0 c-45 2 -18 31 28 31 19 0 26 -14 12 -23 -5 -2 -3 -3 4 -1 6 1 19 -4 30 -11
10 -8 26 -15 36 -15 13 0 17 -9 17 -39 0 -40 -11 -55 -45 -64 -16 -4 -15 -5 6
-6 35 -1 49 16 49 61 0 21 5 38 10 38 15 0 12 -86 -3 -98 -7 -6 -35 -15 -62
-21 l-50 -10 55 5 c30 3 60 10 67 15 6 6 14 34 16 62 l3 52 2 -56 c2 -65 -5
-74 -68 -84 -227 -35 -553 -181 -744 -334 -21 -17 -48 -31 -59 -31 -26 0 -107
86 -139 147 -23 44 -23 44 -4 59 11 8 30 14 43 14 12 0 38 14 58 31 42 37 59
31 24 -8 l-24 -27 28 18 c33 20 46 15 26 -11 -13 -16 -12 -17 3 -5 9 8 23 10
30 6 6 -4 2 6 -10 23 -33 47 -44 82 -51 160 l-6 72 -35 -31 c-29 -25 -30 -28
-7 -13 29 17 49 13 31 -5 -6 -6 -39 -26 -75 -45 -78 -42 -67 -47 14 -6 35 19
57 25 57 17 0 -19 -165 -96 -205 -96 -8 0 -27 12 -44 26 -43 36 -42 77 2 115
52 46 247 189 247 182 0 -4 -10 -18 -22 -31 l-23 -25 36 24 36 23 -33 32 c-51
47 -71 104 -78 219 -7 123 2 160 57 220 64 71 160 94 245 60z m1071 -189 c18
-26 53 -62 77 -79 24 -17 41 -33 39 -37 -2 -3 -31 -25 -64 -48 l-60 -42 -96
141 c-53 78 -92 145 -88 150 4 4 33 26 63 47 l55 40 20 -62 c11 -33 35 -83 54
-110z m1484 148 c26 -9 47 -19 47 -23 0 -4 -9 -35 -21 -69 l-21 -61 -36 13
c-20 8 -45 17 -54 20 -16 5 -16 9 2 61 18 53 28 75 34 75 1 0 23 -7 49 -16z
m-2851 -39 c-1 -5 -15 -10 -31 -10 -38 -1 -61 -21 -60 -54 2 -22 2 -23 6 -4 2
12 11 27 20 35 14 11 15 10 8 -12 -7 -24 -6 -24 7 -6 25 33 36 12 25 -46 -5
-29 -11 -54 -12 -56 -1 -1 -16 3 -34 9 -88 31 -57 165 37 157 20 -2 36 -7 34
-13z m1251 -177 c48 -70 87 -130 87 -132 0 -3 -27 -5 -60 -5 l-60 1 -50 71
c-27 40 -61 86 -75 102 l-27 30 28 -50 c15 -27 42 -71 60 -98 19 -26 34 -49
34 -52 0 -3 -11 -5 -23 -5 -19 0 -37 19 -83 88 -32 48 -60 90 -62 94 -5 10
131 99 139 90 3 -4 45 -64 92 -134z m1258 46 c-85 -23 -167 -72 -226 -136 -36
-39 -59 -56 -69 -52 -9 3 -16 10 -16 14 0 13 85 86 136 116 58 34 168 74 204
73 14 0 2 -7 -29 -15z m224 -35 c34 -17 82 -33 106 -36 36 -5 54 -16 102 -64
102 -103 151 -250 127 -387 -52 -302 -368 -466 -641 -333 -77 37 -126 78 -112
92 7 7 27 -1 61 -26 231 -166 551 -66 643 202 21 62 26 184 9 244 -10 34 -13
37 -58 43 -59 8 -160 56 -274 130 -97 63 -187 106 -221 106 -30 -1 -93 -41
-149 -96 -26 -26 -54 -44 -63 -42 -14 2 -9 13 24 49 80 92 201 147 320 148 51
1 75 -5 126 -30z m-830 -44 c-31 -26 -45 -31 -45 -17 0 9 51 42 65 41 6 0 -3
-11 -20 -24z m683 -44 c23 -12 80 -46 126 -76 103 -67 174 -101 243 -116 63
-13 68 -24 67 -144 -2 -179 -114 -329 -284 -379 -120 -36 -269 -7 -369 72
l-24 19 41 51 c109 138 93 317 -39 436 l-52 47 39 40 c21 23 61 54 88 69 45
26 51 27 86 15 20 -7 56 -23 78 -34z m480 -140 c59 -110 77 -249 47 -366 -23
-91 -81 -199 -139 -262 l-52 -56 -47 11 c-25 7 -69 12 -98 12 -46 0 -55 -4
-88 -38 -20 -20 -41 -46 -47 -56 -9 -18 -15 -19 -69 -8 -32 7 -80 26 -106 42
-50 32 -145 70 -177 70 -20 0 -122 75 -122 90 0 13 113 43 126 33 6 -4 35 -24
65 -44 320 -211 728 5 729 387 0 103 -36 210 -99 290 -9 11 -2 5 15 -13 17
-18 45 -60 62 -92z m-2229 -95 c-2 -2 -18 -8 -34 -11 -21 -5 -27 -4 -20 3 6 5
19 12 30 14 20 4 32 1 24 -6z m1223 -155 l-3 -79 -152 -108 -151 -109 190 -5
190 -5 48 -42 47 -41 -253 -4 c-315 -4 -295 3 -590 -211 -144 -105 -224 -157
-241 -157 -16 0 -34 10 -46 26 -20 25 -21 39 -21 230 l0 204 242 0 241 0 171
123 171 122 -450 3 -450 2 3 65 4 65 526 0 527 0 -3 -79z m100 18 c2 -36 -1
-63 -7 -64 -5 -2 -27 -6 -47 -9 -37 -5 -38 -4 -38 27 0 18 3 49 6 70 6 35 9
37 44 37 l38 0 4 -61z m39 27 c12 -26 5 -76 -11 -76 -6 0 -10 8 -10 19 0 10
-3 33 -6 50 -8 38 11 43 27 7z m-1373 -498 c-2 -59 -7 -93 -15 -95 -9 -3 -9 3
-1 25 21 54 -14 88 -61 59 -14 -9 -41 -42 -59 -74 -29 -50 -33 -54 -28 -25 15
86 99 202 147 202 19 0 20 -6 17 -92z m2508 -2 c-6 -33 -10 -36 -41 -36 -22 0
-37 6 -44 17 -7 14 -13 15 -33 5 l-23 -11 24 2 c13 1 26 -3 28 -10 6 -15 -94
-37 -178 -37 -37 -1 -62 -4 -55 -8 20 -14 73 -8 267 27 106 20 194 33 197 31
2 -3 -5 -45 -18 -94 l-22 -89 -86 19 c-48 10 -121 28 -162 39 -41 11 -104 26
-140 34 -57 11 -164 38 -210 52 -9 3 2 13 30 27 25 11 48 25 51 29 8 11 100
-13 93 -24 -3 -5 -9 -7 -14 -4 -5 3 -11 1 -14 -4 -3 -5 -22 -12 -42 -16 -20
-3 -34 -9 -31 -11 7 -7 108 20 252 66 180 57 182 57 171 -4z m-2869 13 c43
-21 143 -127 143 -152 0 -6 -19 7 -42 30 -54 51 -83 66 -114 59 -29 -8 -33
-49 -9 -83 15 -22 15 -22 -14 -12 -90 31 -121 140 -49 169 33 13 37 12 85 -11z
m2418 3 c16 -8 12 -13 -33 -36 -48 -24 -73 -22 -56 5 4 7 1 10 -7 7 -8 -3 -13
-14 -12 -26 3 -25 -45 -41 -59 -20 -8 10 -11 10 -15 1 -5 -14 -43 -18 -43 -5
0 15 40 66 62 79 26 15 133 12 163 -5z m-2087 -60 c5 -15 -63 -82 -84 -82 -12
0 -12 5 2 33 32 62 70 85 82 49z m1819 -38 c10 -2 10 -9 1 -29 -6 -14 -14 -25
-17 -24 -3 0 -19 16 -34 35 l-29 34 34 -6 c18 -3 39 -7 45 -10z m288 -8 c116
-31 415 -100 527 -122 48 -9 92 -22 98 -29 7 -9 -3 -44 -34 -120 -25 -59 -49
-112 -55 -118 -6 -6 -34 0 -79 18 -95 37 -110 33 -141 -39 -30 -69 -29 -71 77
-106 37 -12 69 -24 70 -25 6 -5 -87 -181 -110 -210 -11 -14 -30 -25 -44 -25
-50 0 -447 117 -556 164 -44 19 -45 23 -19 68 55 94 65 267 22 378 -11 30 -21
63 -21 73 0 10 -4 16 -9 13 -17 -11 -18 18 -3 52 15 31 52 45 52 20 0 -10 2
-10 8 -1 7 11 59 26 107 31 11 1 61 -9 110 -22z m-2382 -11 c42 -29 47 -45 15
-45 -31 0 -88 36 -88 55 0 22 31 18 73 -10z m309 -114 l3 -80 -29 -5 c-50 -10
-53 -8 -60 45 -4 29 -10 64 -13 80 -5 24 -2 28 23 32 76 11 72 15 76 -72z
m-73 -286 c30 -190 52 -348 49 -351 -9 -9 -113 -23 -119 -16 -10 11 -111 671
-105 687 4 13 32 19 96 23 l25 2 54 -345z m-206 293 c3 -18 9 -54 13 -80 7
-55 19 -49 -141 -73 -55 -8 -112 -18 -126 -21 -25 -5 -26 -2 -43 72 -9 42 -15
79 -12 81 3 4 252 48 292 52 7 0 14 -14 17 -31z m1753 -2 c84 -39 135 -119
134 -212 -1 -23 -14 -65 -33 -104 -28 -56 -39 -68 -86 -92 l-53 -28 -598 0
c-660 0 -610 -5 -610 63 l0 32 83 0 c110 0 135 13 377 190 109 80 213 152 232
160 26 11 85 14 268 15 226 0 237 -1 286 -24z m-1443 -160 c20 -49 95 -129
138 -146 16 -7 29 -18 29 -25 0 -7 3 -32 6 -57 l6 -45 -62 -6 c-72 -6 -106
-27 -132 -77 -11 -22 -19 -29 -22 -19 -3 8 -19 101 -36 208 -33 211 -33 211
25 211 26 0 32 -6 48 -44z m-283 -3 c0 -5 18 -118 39 -253 22 -134 38 -247 35
-250 -9 -9 -205 -37 -209 -30 -5 9 -105 458 -108 485 -2 17 9 21 98 36 116 20
145 22 145 12z"/>
<path d="M3540 4666 c0 -19 140 -228 162 -242 15 -9 -32 73 -80 141 -44 61
-82 108 -82 101z"/>
<path d="M3524 4575 c35 -61 114 -172 128 -181 15 -10 -20 55 -74 133 -61 88
-93 117 -54 48z"/>
<path d="M3427 4516 c29 -33 71 -93 93 -135 24 -46 38 -64 34 -46 -17 81 -75
167 -148 218 -24 16 -19 8 21 -37z"/>
<path d="M3017 4476 c-55 -20 -111 -60 -141 -99 -26 -34 -56 -107 -56 -136 1
-9 9 7 18 35 24 69 70 124 134 160 46 25 63 29 133 29 63 0 89 -5 121 -22 66
-35 101 -70 130 -129 50 -102 33 -220 -44 -305 -57 -64 -108 -90 -196 -99
l-71 -7 61 -2 c81 -1 144 22 203 75 150 135 120 381 -60 478 -64 35 -170 45
-232 22z"/>
<path d="M2950 4400 c0 -5 7 -10 15 -10 8 0 15 5 15 10 0 6 -7 10 -15 10 -8 0
-15 -4 -15 -10z"/>
<path d="M3306 4343 c-11 -11 -6 -23 9 -23 8 0 15 4 15 9 0 13 -16 22 -24 14z"/>
<path d="M2885 4310 c-3 -5 -1 -10 4 -10 6 0 11 5 11 10 0 6 -2 10 -4 10 -3 0
-8 -4 -11 -10z"/>
<path d="M3225 4283 c-16 -8 -43 -27 -58 -42 -19 -18 -37 -25 -56 -23 -19 2
-30 -2 -35 -14 -8 -20 10 -44 34 -44 10 0 23 -13 30 -29 11 -28 50 -72 50 -57
0 13 -29 62 -43 74 -24 20 -8 61 32 82 42 22 101 69 86 69 -5 0 -23 -7 -40
-16z m-100 -93 c0 -22 -29 -18 -33 3 -3 14 1 18 15 15 10 -2 18 -10 18 -18z"/>
<path d="M3345 4210 c-3 -5 -1 -10 4 -10 6 0 11 5 11 10 0 6 -2 10 -4 10 -3 0
-8 -4 -11 -10z"/>
<path d="M2855 4180 c-3 -5 -1 -10 4 -10 6 0 11 5 11 10 0 6 -2 10 -4 10 -3 0
-8 -4 -11 -10z"/>
<path d="M3315 4080 c-3 -5 -1 -10 4 -10 6 0 11 5 11 10 0 6 -2 10 -4 10 -3 0
-8 -4 -11 -10z"/>
<path d="M2890 4055 c0 -8 5 -15 10 -15 6 0 10 7 10 15 0 8 -4 15 -10 15 -5 0
-10 -7 -10 -15z"/>
<path d="M3237 3994 c-8 -8 1 -24 14 -24 5 0 9 7 9 15 0 15 -12 20 -23 9z"/>
<path d="M2995 3970 c3 -5 8 -10 11 -10 2 0 4 5 4 10 0 6 -5 10 -11 10 -5 0
-7 -4 -4 -10z"/>
<path d="M3125 3950 c-3 -5 -1 -10 4 -10 6 0 11 5 11 10 0 6 -2 10 -4 10 -3 0
-8 -4 -11 -10z"/>
<path d="M3008 3833 c7 -3 16 -2 19 1 4 3 -2 6 -13 5 -11 0 -14 -3 -6 -6z"/>
<path d="M4230 4360 c-22 -22 -27 -79 -8 -98 32 -32 88 6 88 61 0 56 -41 76
-80 37z m45 -39 c7 -12 -12 -24 -25 -16 -11 7 -4 25 10 25 5 0 11 -4 15 -9z"/>
<path d="M1809 4072 c25 -30 54 -60 67 -68 12 -8 28 -28 34 -45 7 -16 15 -28
17 -25 10 9 -22 52 -90 120 -64 63 -67 65 -28 18z"/>
<path d="M2232 4005 c0 -16 2 -22 5 -12 2 9 2 23 0 30 -3 6 -5 -1 -5 -18z"/>
<path d="M1723 4008 c3 -10 2 -20 -3 -23 -5 -3 -11 3 -13 12 -4 14 -5 13 -6
-4 -1 -17 5 -23 18 -23 28 0 36 19 16 38 -17 16 -17 16 -12 0z"/>
<path d="M1785 3950 c10 -11 20 -20 23 -20 3 0 -3 9 -13 20 -10 11 -20 20 -23
20 -3 0 3 -9 13 -20z"/>
<path d="M1663 3952 c-6 -4 9 -7 33 -7 80 0 119 -74 69 -133 -42 -50 -113 -55
-155 -9 -28 29 -25 69 7 109 l27 33 -27 -24 c-27 -24 -27 -24 -27 -3 0 29 -19
38 -38 16 -16 -17 -16 -17 1 -5 14 11 17 11 17 -2 0 -8 -6 -18 -12 -20 -7 -3
-3 -6 9 -6 20 -1 22 -5 17 -31 -8 -39 11 -85 42 -99 34 -15 95 -13 118 4 50
37 71 110 43 146 -26 34 -93 51 -124 31z"/>
<path d="M1680 3911 c-8 -3 -15 -12 -15 -20 0 -8 -6 -16 -14 -19 -9 -3 -11 0
-6 8 5 9 4 11 -3 6 -18 -11 -14 -24 8 -31 24 -8 70 18 70 39 0 17 -20 25 -40
17z"/>
<path d="M1727 3843 c-22 -29 -18 -38 7 -20 10 7 17 20 15 29 -3 13 -8 11 -22
-9z"/>
<path d="M1759 3667 c-93 -63 -107 -180 -31 -260 55 -59 125 -73 192 -39 114
57 106 243 -13 301 -56 27 -106 27 -148 -2z m111 3 c27 0 90 -58 106 -97 37
-87 -10 -185 -99 -207 -100 -24 -207 94 -178 200 17 62 94 122 139 108 8 -2
22 -4 32 -4z"/>
<path d="M1899 3624 c39 -32 53 -58 62 -109 6 -39 7 -39 8 -7 1 39 -30 105
-61 126 -36 26 -42 18 -9 -10z"/>
<path d="M1974 3651 c35 -44 46 -72 56 -141 l7 -55 1 50 c2 59 -23 119 -64
155 l-28 25 28 -34z"/>
<path d="M2278 3413 c7 -3 16 -2 19 1 4 3 -2 6 -13 5 -11 0 -14 -3 -6 -6z"/>
<path d="M1979 3301 c-103 -42 -179 -78 -179 -86 0 -3 17 2 38 11 20 9 84 37
142 61 57 24 106 46 109 48 11 12 -21 2 -110 -34z"/>
<path d="M1635 3104 c-55 -44 -76 -55 -97 -52 -33 5 -35 2 -7 -12 23 -13 58 7
139 79 65 58 47 50 -35 -15z"/>
<path d="M2660 4050 c0 -36 60 -138 108 -182 28 -27 54 -48 57 -48 4 0 -16 25
-44 56 -27 31 -66 86 -85 123 -20 36 -36 59 -36 51z"/>
<path d="M2574 3955 c32 -56 115 -175 122 -175 12 0 -1 27 -56 108 -68 102
-110 145 -66 67z"/>
<path d="M4568 2943 c7 -3 16 -2 19 1 4 3 -2 6 -13 5 -11 0 -14 -3 -6 -6z"/>
<path d="M4488 2923 c6 -2 18 -2 25 0 6 3 1 5 -13 5 -14 0 -19 -2 -12 -5z"/>
<path d="M4775 2900 c3 -5 8 -10 11 -10 2 0 4 5 4 10 0 6 -5 10 -11 10 -5 0
-7 -4 -4 -10z"/>
<path d="M4618 2873 c7 -3 16 -2 19 1 4 3 -2 6 -13 5 -11 0 -14 -3 -6 -6z"/>
<path d="M4799 2867 c5 -5 19 -7 32 -5 20 3 19 5 -9 9 -20 3 -29 2 -23 -4z"/>
<path d="M4841 2824 c0 -11 3 -14 6 -6 3 7 2 16 -1 19 -3 4 -6 -2 -5 -13z"/>
<path d="M4085 2860 c-3 -5 -1 -10 4 -10 6 0 11 5 11 10 0 6 -2 10 -4 10 -3 0
-8 -4 -11 -10z"/>
<path d="M4898 2733 c7 -3 16 -2 19 1 4 3 -2 6 -13 5 -11 0 -14 -3 -6 -6z"/>
<path d="M4910 2820 c8 -5 20 -10 25 -10 6 0 3 5 -5 10 -8 5 -19 10 -25 10 -5
0 -3 -5 5 -10z"/>
<path d="M4704 2475 c-9 -23 4 -47 23 -43 26 5 28 35 3 48 -16 9 -21 8 -26 -5z"/>
<path d="M162 1957 c-9 -10 -12 -51 -10 -138 l3 -124 86 -3 c81 -3 87 -1 112
24 29 29 35 70 15 107 -6 12 -10 40 -9 62 3 60 -22 79 -113 83 -55 3 -75 0
-84 -11z m148 -67 c0 -17 -7 -20 -50 -20 -43 0 -50 3 -50 20 0 17 7 20 50 20
43 0 50 -3 50 -20z m11 -96 c23 -27 -1 -49 -60 -52 l-51 -3 0 35 0 36 49 0
c32 0 53 -5 62 -16z"/>
<path d="M572 1953 c-52 -25 -63 -58 -60 -171 3 -89 5 -97 23 -97 16 0 21 8
23 38 l3 37 65 0 64 0 0 -34 c0 -39 27 -57 46 -31 14 19 9 187 -7 216 -14 27
-68 59 -99 59 -14 0 -40 -8 -58 -17z m110 -67 c4 -6 8 -23 8 -38 0 -28 -1 -28
-65 -28 -61 0 -65 1 -65 23 0 65 87 96 122 43z"/>
<path d="M887 1963 c-13 -12 -7 -41 9 -47 9 -3 35 -6 60 -6 l44 0 -66 -92
c-35 -51 -63 -99 -62 -108 5 -22 193 -28 201 -6 9 23 -14 35 -72 38 l-53 3 55
76 c101 141 100 149 -28 149 -45 0 -85 -3 -88 -7z"/>
<path d="M1262 1950 c-18 -11 -40 -36 -48 -55 -20 -48 -19 -188 1 -205 21 -18
45 4 45 41 0 29 0 29 65 29 l65 0 0 -34 c0 -38 10 -49 34 -40 13 5 16 23 16
96 0 107 -16 149 -65 172 -44 21 -73 20 -113 -4z m115 -71 c26 -51 19 -59 -52
-59 -65 0 -65 0 -65 28 0 70 86 92 117 31z"/>
<path d="M1578 1964 c-12 -12 -10 -272 2 -279 20 -12 40 17 40 56 0 35 3 39
25 39 19 0 32 -11 53 -45 19 -32 33 -45 49 -45 29 0 30 22 3 65 -17 27 -18 34
-6 38 24 10 48 65 41 96 -11 53 -48 75 -128 79 -40 2 -75 0 -79 -4z m150 -82
c5 -35 -15 -52 -64 -52 l-44 0 0 41 0 40 53 -3 c46 -3 52 -6 55 -26z"/>
<path d="M2131 1956 c-40 -22 -50 -54 -51 -157 0 -75 3 -99 15 -109 28 -24 40
5 45 113 l5 102 30 0 30 0 3 -102 c2 -74 7 -104 17 -113 12 -10 18 -10 30 0
10 9 15 39 17 113 l3 102 30 0 30 0 3 -102 c2 -74 7 -104 17 -113 12 -10 18
-10 30 0 21 17 21 189 0 229 -21 41 -66 57 -114 41 -28 -9 -43 -9 -59 -1 -27
14 -51 13 -81 -3z"/>
<path d="M2526 1954 c-3 -9 -6 -69 -6 -134 0 -92 3 -120 15 -130 12 -10 18
-10 30 0 12 10 15 38 15 130 0 131 -4 150 -30 150 -10 0 -21 -7 -24 -16z"/>
<path d="M2881 1956 c-8 -9 -11 -55 -9 -137 l3 -124 84 -3 c87 -3 106 3 95 31
-5 13 -19 17 -65 17 -59 0 -59 0 -59 30 0 28 2 30 39 30 52 0 71 8 71 30 0 22
-19 30 -71 30 -35 0 -39 3 -39 25 0 23 3 25 48 25 60 0 93 20 73 44 -18 21
-153 23 -170 2z"/>
<path d="M3250 1963 c-32 -12 -60 -47 -60 -75 0 -39 38 -75 94 -89 52 -13 63
-23 46 -44 -18 -22 -63 -18 -94 6 -25 20 -29 20 -44 6 -15 -15 -14 -19 8 -42
62 -66 190 -38 190 42 0 43 -18 62 -78 79 -59 17 -74 28 -65 50 7 19 37 23 73
8 25 -11 36 -11 46 -3 21 17 17 27 -18 49 -32 19 -68 24 -98 13z"/>
<path d="M3510 1955 c-18 -21 4 -45 41 -45 l29 0 0 -109 c0 -79 4 -111 13
-114 32 -11 37 5 37 114 l0 109 29 0 c37 0 59 24 41 45 -9 11 -34 15 -95 15
-61 0 -86 -4 -95 -15z"/>
<path d="M3841 1952 c-17 -31 -14 -234 3 -257 21 -29 46 -3 46 46 0 35 3 39
24 39 18 0 32 -12 53 -45 45 -71 95 -54 53 18 -21 35 -21 36 -1 46 26 14 44
71 32 102 -18 48 -48 63 -126 67 -65 4 -74 2 -84 -16z m157 -70 c5 -35 -15
-52 -64 -52 l-44 0 0 41 0 40 53 -3 c46 -3 52 -6 55 -26z"/>
<path d="M4192 1958 c-14 -14 -17 -235 -3 -256 5 -9 31 -12 92 -10 76 3 84 5
84 23 0 18 -8 20 -62 23 l-63 3 0 32 c0 31 1 32 46 32 34 0 50 5 58 18 15 24
-6 37 -61 37 -39 0 -43 2 -43 25 0 23 3 25 48 25 60 0 93 20 73 44 -17 20
-150 23 -169 4z"/>
<path d="M4495 1948 c-3 -13 -4 -75 -3 -138 l3 -115 84 -3 c87 -3 106 3 95 31
-5 13 -19 17 -65 17 l-59 0 0 99 c0 55 -3 106 -6 115 -9 24 -43 20 -49 -6z"/>
<path d="M4805 1951 c-7 -22 -4 -214 3 -244 4 -16 15 -17 91 -15 78 3 86 5 86
23 0 18 -8 20 -62 23 l-62 3 -3 112 c-3 106 -4 112 -25 115 -14 2 -23 -3 -28
-17z"/>
<path d="M5122 1957 c-16 -19 -13 -241 3 -264 11 -15 15 -15 29 -4 24 20 19
274 -5 279 -9 1 -21 -3 -27 -11z"/>
<path d="M5307 1963 c-4 -3 -7 -14 -7 -24 0 -18 19 -29 51 -29 17 0 19 -8 19
-104 0 -81 3 -106 15 -116 27 -22 35 1 37 109 1 62 6 104 12 106 6 2 23 6 39
9 30 7 38 40 11 50 -21 8 -169 8 -177 -1z"/>
<path d="M5685 1961 c-11 -5 -31 -21 -45 -36 -23 -24 -25 -36 -28 -129 -3 -91
-2 -104 14 -110 26 -10 40 10 43 62 1 8 20 12 61 12 56 0 60 -2 60 -23 0 -13
6 -32 14 -42 12 -16 16 -17 30 -6 12 10 16 32 16 93 0 84 -14 131 -48 161 -23
21 -87 31 -117 18z m93 -64 c6 -5 12 -25 12 -43 l0 -34 -65 0 c-70 0 -74 4
-55 55 15 40 70 52 108 22z"/>
<path d="M60 1390 c0 -48 1 -50 29 -50 39 0 56 22 40 52 -7 13 -12 24 -11 26
9 12 -3 22 -28 22 -29 0 -30 -1 -30 -50z m45 29 c10 -15 -1 -23 -20 -15 -9 3
-13 10 -10 16 8 13 22 13 30 -1z m13 -46 c2 -8 -6 -13 -22 -13 -25 0 -33 10
-19 24 10 10 36 3 41 -11z"/>
<path d="M200 1396 c0 -25 5 -48 10 -51 6 -3 10 1 10 9 0 21 9 20 33 -1 19
-17 20 -17 14 0 -4 10 -1 26 5 37 16 25 -5 50 -43 50 -28 0 -29 -2 -29 -44z
m57 18 c6 -16 -15 -37 -29 -28 -4 3 -8 14 -8 25 0 23 28 26 37 3z"/>
<path d="M340 1390 c0 -27 5 -50 10 -50 6 0 10 23 10 50 0 28 -4 50 -10 50 -5
0 -10 -22 -10 -50z"/>
<path d="M422 1393 c3 -46 4 -48 36 -51 18 -2 32 1 32 7 0 6 -11 11 -25 11
-22 0 -25 4 -25 40 0 22 -5 40 -11 40 -6 0 -9 -19 -7 -47z"/>
<path d="M562 1393 c-2 -53 -2 -53 28 -53 17 0 30 5 30 10 0 6 -11 10 -24 10
-22 0 -25 5 -29 43 -3 40 -4 40 -5 -10z"/>
<path d="M717 1413 c-8 -16 -18 -39 -22 -53 -6 -20 -5 -23 6 -12 17 15 51 16
67 0 7 -7 12 -8 12 -3 0 17 -35 95 -42 95 -4 0 -14 -12 -21 -27z m33 -24 c0
-5 -7 -9 -15 -9 -9 0 -12 6 -9 15 6 15 24 11 24 -6z"/>
<path d="M852 1388 c1 -47 2 -49 5 -13 l4 40 20 -25 19 -25 20 23 19 23 4 -38
c3 -32 4 -29 5 15 2 58 -6 65 -29 25 l-17 -26 -17 26 c-26 40 -35 33 -33 -25z"/>
<path d="M1031 1421 c-16 -29 -14 -46 9 -66 41 -37 102 17 73 64 -16 25 -69
26 -82 2z m69 -12 c9 -15 8 -24 -1 -35 -18 -22 -53 -13 -57 15 -6 40 39 56 58
20z"/>
<path d="M1197 1433 c-14 -14 -6 -34 18 -45 14 -6 25 -16 25 -21 0 -5 -11 -7
-25 -5 -14 3 -25 2 -25 -3 0 -14 19 -21 40 -14 29 9 25 44 -6 55 -29 12 -22
34 8 24 14 -4 18 -2 14 5 -8 12 -39 15 -49 4z"/>
<path d="M1400 1390 c0 -49 1 -50 30 -50 17 0 30 5 30 10 0 6 -11 10 -25 10
-31 0 -33 18 -2 30 l22 9 -23 0 c-30 1 -24 23 9 32 21 6 21 7 -8 8 -33 1 -33
1 -33 -49z"/>
<path d="M1530 1389 c0 -31 4 -48 10 -44 6 3 10 18 10 33 l1 27 27 -33 c15
-18 31 -30 35 -26 11 11 8 94 -3 94 -5 0 -10 -15 -10 -32 l-1 -33 -27 33 c-15
18 -30 32 -34 32 -5 0 -8 -23 -8 -51z"/>
<path d="M1760 1436 c0 -11 40 -96 45 -96 9 0 46 92 40 98 -6 6 -7 6 -26 -38
l-16 -35 -14 38 c-7 20 -17 37 -21 37 -4 0 -8 -2 -8 -4z"/>
<path d="M1914 1395 c-9 -25 -14 -48 -10 -52 3 -3 6 -1 6 5 0 16 57 15 63 0 2
-7 7 -10 11 -7 9 8 -31 99 -43 99 -5 0 -17 -20 -27 -45z m35 -14 c-15 -5 -22
6 -14 19 6 9 10 9 16 -1 5 -8 4 -15 -2 -18z"/>
<path d="M2050 1396 c0 -25 5 -48 10 -51 6 -3 10 1 10 9 0 21 9 20 33 -1 19
-17 20 -17 14 0 -4 10 -1 26 5 37 16 25 -5 50 -43 50 -28 0 -29 -2 -29 -44z
m57 18 c6 -16 -15 -37 -29 -28 -4 3 -8 14 -8 25 0 23 28 26 37 3z"/>
<path d="M2190 1396 c0 -25 5 -48 10 -51 6 -4 10 13 10 44 0 28 -4 51 -10 51
-5 0 -10 -20 -10 -44z"/>
<path d="M2272 1393 c3 -46 4 -48 36 -51 18 -2 32 1 32 7 0 6 -11 11 -25 11
-31 0 -33 18 -2 30 l22 9 -22 0 c-33 1 -29 29 5 34 21 3 19 4 -11 6 l-38 1 3
-47z"/>
<path d="M2410 1391 c0 -43 3 -51 19 -51 10 0 29 9 42 19 20 16 22 23 14 47
-8 23 -17 30 -43 32 l-32 3 0 -50z m48 30 c22 -13 11 -56 -15 -59 -19 -3 -23
1 -23 26 0 40 12 50 38 33z"/>
<path d="M2566 1397 c-19 -51 -20 -65 -4 -49 7 7 21 12 33 12 12 0 26 -5 33
-12 17 -17 15 -7 -8 46 -10 25 -23 46 -28 46 -5 0 -17 -19 -26 -43z m33 -16
c-15 -5 -22 6 -14 19 6 9 10 9 16 -1 5 -8 4 -15 -2 -18z"/>
<path d="M2702 1393 c3 -41 6 -48 25 -51 24 -3 63 29 63 52 0 24 -30 46 -61
46 -30 0 -30 -1 -27 -47z m61 16 c14 -22 2 -49 -23 -49 -16 0 -20 6 -20 36 0
28 4 35 16 32 9 -2 21 -10 27 -19z"/>
<path d="M3014 1428 c-4 -6 4 -20 19 -33 34 -26 34 -39 2 -33 -30 6 -33 -8 -4
-17 14 -5 27 -1 38 10 15 15 14 18 -11 39 -33 26 -36 40 -8 33 11 -3 20 -1 20
4 0 13 -48 11 -56 -3z"/>
<path d="M3151 1421 c-17 -31 -13 -49 14 -67 31 -20 63 -10 71 23 9 35 -7 57
-44 61 -22 2 -34 -2 -41 -17z m70 -7 c17 -21 0 -49 -32 -49 -18 0 -25 6 -27
24 -6 38 34 55 59 25z"/>
<path d="M3310 1389 c0 -49 1 -51 15 -33 14 18 16 18 29 1 17 -22 22 -14 21
38 0 38 -2 40 -32 43 l-33 3 0 -52z m56 30 c10 -17 -23 -46 -37 -32 -7 7 -9
19 -6 27 7 18 33 21 43 5z"/>
<path d="M3450 1388 c0 -33 4 -48 9 -40 4 8 19 19 32 26 16 7 24 20 24 36 0
21 -5 26 -32 28 l-33 3 0 -53z m56 31 c10 -17 -23 -46 -37 -32 -7 7 -9 19 -6
27 7 18 33 21 43 5z"/>
<path d="M3591 1388 c1 -29 3 -45 6 -35 6 22 22 22 38 0 10 -14 13 -10 19 26
8 52 3 61 -35 61 -29 0 -29 -1 -28 -52z m52 28 c8 -20 -20 -43 -35 -28 -14 14
-3 42 16 42 7 0 16 -6 19 -14z"/>
<path d="M3730 1390 c0 -49 1 -50 30 -50 17 0 30 5 30 10 0 6 -11 10 -25 10
-31 0 -33 18 -2 30 l22 9 -22 0 c-33 1 -29 29 5 34 25 4 25 4 -5 6 l-33 1 0
-50z"/>
<path d="M3860 1389 c0 -28 4 -48 9 -44 5 3 8 17 5 30 -6 33 4 31 37 -7 l28
-33 -1 55 c0 47 -2 50 -7 20 l-6 -35 -23 33 c-13 17 -28 32 -33 32 -5 0 -9
-23 -9 -51z"/>
<path d="M4010 1390 c0 -46 2 -50 24 -50 31 0 56 24 56 54 0 30 -18 46 -52 46
-27 0 -28 -2 -28 -50z m61 24 c9 -11 10 -20 2 -32 -14 -23 -45 -21 -49 3 -7
44 20 61 47 29z"/>
<path d="M4160 1390 c0 -49 1 -50 30 -50 17 0 30 5 30 10 0 6 -11 10 -25 10
-31 0 -33 18 -2 30 l22 9 -23 0 c-30 1 -24 23 9 32 21 6 21 7 -8 8 -33 1 -33
1 -33 -49z"/>
<path d="M4290 1389 c0 -31 4 -48 10 -44 6 3 10 18 10 33 1 25 2 25 14 10 7
-10 17 -18 21 -18 4 0 14 8 21 18 12 15 13 15 14 -10 0 -15 5 -30 10 -33 6 -4
10 13 10 44 0 57 -11 64 -37 25 l-17 -26 -19 26 c-28 38 -37 32 -37 -25z"/>
<path d="M4476 1421 c-34 -38 12 -94 59 -73 29 13 37 45 18 71 -18 26 -55 27
-77 2z m64 -6 c20 -25 8 -50 -25 -50 -21 0 -31 5 -33 18 -4 21 14 47 33 47 7
0 18 -7 25 -15z"/>
<path d="M4637 1433 c-14 -14 -6 -34 18 -45 14 -6 25 -16 25 -21 0 -5 -11 -7
-25 -5 -30 6 -33 -8 -4 -17 14 -5 27 -1 38 10 15 15 14 18 -11 39 -33 26 -36
40 -8 33 11 -3 20 -1 20 4 0 10 -43 12 -53 2z"/>
<path d="M4842 1393 c3 -46 4 -48 36 -51 18 -2 32 1 32 7 0 6 -11 11 -25 11
-32 0 -34 27 -2 33 l22 4 -22 2 c-33 2 -29 29 5 34 21 3 19 4 -11 6 l-38 1 3
-47z"/>
<path d="M4977 1433 c-10 -10 -8 -81 2 -88 6 -3 11 12 13 32 l3 38 23 -37 c13
-21 28 -38 33 -38 5 0 9 23 9 50 0 55 -17 69 -22 18 l-3 -33 -20 33 c-20 33
-27 37 -38 25z"/>
<path d="M5200 1396 c0 -25 5 -48 10 -51 6 -3 10 1 10 9 0 8 10 16 21 18 55 8
44 68 -12 68 -28 0 -29 -2 -29 -44z m57 18 c6 -16 -15 -37 -29 -28 -4 3 -8 14
-8 25 0 23 28 26 37 3z"/>
<path d="M5340 1396 c0 -25 5 -48 10 -51 6 -3 10 1 10 9 0 21 9 20 33 -1 19
-17 20 -17 14 0 -4 10 -2 27 4 38 14 27 -5 49 -42 49 -28 0 -29 -2 -29 -44z
m57 18 c6 -16 -15 -37 -29 -28 -4 3 -8 14 -8 25 0 23 28 26 37 3z"/>
<path d="M5482 1393 c3 -46 4 -48 36 -51 18 -2 32 1 32 7 0 6 -11 11 -25 11
-32 0 -34 27 -2 33 l22 4 -22 2 c-33 2 -29 29 5 34 21 3 19 4 -11 6 l-38 1 3
-47z"/>
<path d="M5622 1428 c-28 -28 0 -88 41 -88 28 0 28 19 0 22 -36 4 -46 52 -14
63 12 3 25 3 31 0 5 -3 10 -1 10 4 0 15 -53 14 -68 -1z"/>
<path d="M5763 1390 c0 -30 2 -43 4 -27 2 15 2 39 0 55 -2 15 -4 2 -4 -28z"/>
<path d="M5852 1428 c-28 -28 -3 -88 37 -88 10 0 26 9 36 20 27 30 10 74 -30
78 -17 2 -36 -3 -43 -10z m56 -7 c21 -13 11 -55 -14 -59 -30 -4 -48 21 -34 47
11 22 27 26 48 12z"/>
<path d="M2852 1340 c0 -14 2 -19 5 -12 2 6 2 18 0 25 -3 6 -5 1 -5 -13z"/>
</g>
</svg>
